<svg xmlns="http://www.w3.org/2000/svg" data-name="Layer 1" viewBox="0 0 512 512" id="analytics"><rect width="497" height="497" x="7.5" y="7.5" fill="#f2f2f2" rx="30"></rect><path fill="#676e87" d="M504.5 37.5v60H7.5v-60a29.998 29.998 0 0 1 30-30h437a29.998 29.998 0 0 1 30 30Z"></path><circle cx="54.627" cy="54.424" r="7.5" fill="#f66"></circle><circle cx="84.627" cy="54.424" r="7.5" fill="#63ea86"></circle><circle cx="114.627" cy="54.424" r="7.5" fill="#ffe966"></circle><path fill="#dedede" d="M89.994 444.499a7.502 7.502 0 0 1-6.042-11.937l121-165a7.5 7.5 0 0 1 11.531-.682L352.937 413.1l92.553-161.826a7.5 7.5 0 1 1 13.02 7.447L360.906 429.38a7.5 7.5 0 0 1-11.994 1.394l-137.218-147.04-115.646 157.7a7.494 7.494 0 0 1-6.054 3.066Z"></path><circle cx="210.993" cy="272.03" r="22.5" fill="#dedede"></circle><path fill="#dedede" d="M210.993 249.53a22.454 22.454 0 0 0-7.5 1.285 22.502 22.502 0 0 1 0 42.43 22.5 22.5 0 1 0 7.5-43.715Z"></path><circle cx="90" cy="436.997" r="22.5" fill="#dedede"></circle><path fill="#dedede" d="M90 414.497a22.454 22.454 0 0 0-7.5 1.286 22.502 22.502 0 0 1 0 42.429 22.5 22.5 0 1 0 7.5-43.715Z"></path><circle cx="354.358" cy="425.597" r="22.5" fill="#dedede"></circle><path fill="#dedede" d="M354.358 403.097a22.454 22.454 0 0 0-7.5 1.285 22.502 22.502 0 0 1 0 42.43 22.5 22.5 0 1 0 7.5-43.715Z"></path><circle cx="452" cy="254.997" r="22.5" fill="#dedede"></circle><path fill="#dedede" d="M452 232.497a22.454 22.454 0 0 0-7.5 1.286 22.502 22.502 0 0 1 0 42.429 22.5 22.5 0 1 0 7.5-43.715Z"></path><path fill="#bebebe" d="M74.994 444.499a7.502 7.502 0 0 1-6.042-11.937l121-165a7.5 7.5 0 0 1 11.531-.682L337.937 413.1l92.553-161.826a7.5 7.5 0 1 1 13.02 7.447L345.906 429.38a7.5 7.5 0 0 1-11.994 1.394l-137.218-147.04-115.646 157.7a7.494 7.494 0 0 1-6.054 3.066Z"></path><circle cx="195.993" cy="272.03" r="22.5" fill="#63ea86"></circle><path fill="#3ce568" d="M195.993 249.53a22.454 22.454 0 0 0-7.5 1.285 22.502 22.502 0 0 1 0 42.43 22.5 22.5 0 1 0 7.5-43.715Z"></path><circle cx="75" cy="436.997" r="22.5" fill="#f66"></circle><path fill="#ff4e4e" d="M75 414.497a22.454 22.454 0 0 0-7.5 1.286 22.502 22.502 0 0 1 0 42.429 22.5 22.5 0 1 0 7.5-43.715Z"></path><circle cx="339.358" cy="425.597" r="22.5" fill="#f66"></circle><path fill="#ff4e4e" d="M339.358 403.097a22.454 22.454 0 0 0-7.5 1.285 22.502 22.502 0 0 1 0 42.43 22.5 22.5 0 1 0 7.5-43.715Z"></path><circle cx="437" cy="254.997" r="22.5" fill="#63ea86"></circle><path fill="#3ce568" d="M437 232.497a22.454 22.454 0 0 0-7.5 1.286 22.502 22.502 0 0 1 0 42.429 22.5 22.5 0 1 0 7.5-43.715Z"></path><rect width="69" height="45" x="279.5" y="142.497" fill="#63ea86" rx="10"></rect><path fill="#3ce568" d="M338.5 142.497h-15a10 10 0 0 1 10 10v25a10 10 0 0 1-10 10h15a10 10 0 0 0 10-10v-25a10 10 0 0 0-10-10Z"></path><path fill="#a6f3ba" d="M459.5 157.497h-66a7.5 7.5 0 0 1 0-15h66a7.5 7.5 0 0 1 0 15zm0 30h-66a7.5 7.5 0 0 1 0-15h66a7.5 7.5 0 0 1 0 15z"></path><rect width="69" height="45" x="52.5" y="142.497" fill="#f66" rx="10"></rect><path fill="#ff4e4e" d="M111.5 142.497h-15a10 10 0 0 1 10 10v25a10 10 0 0 1-10 10h15a10 10 0 0 0 10-10v-25a10 10 0 0 0-10-10Z"></path><path fill="#ff8585" d="M232.5 157.497h-66a7.5 7.5 0 0 1 0-15h66a7.5 7.5 0 0 1 0 15zm0 30h-66a7.5 7.5 0 0 1 0-15h66a7.5 7.5 0 0 1 0 15z"></path></svg>