<svg xmlns="http://www.w3.org/2000/svg" width="512" height="512" enable-background="new 0 0 512 512" viewBox="0 0 512 512" id="webpage"><linearGradient id="a" x1="96.52" x2="515.479" y1="-92.48" y2="326.479" gradientTransform="matrix(1 0 0 -1 -50 373)" gradientUnits="userSpaceOnUse"><stop offset=".33" stop-color="#52c5dc"></stop><stop offset=".63" stop-color="#3c99d4"></stop><stop offset=".895" stop-color="#3e7abc"></stop></linearGradient><path fill="url(#a)" d="M440.82,41.58H71.178c-26.29,0-47.679,21.389-47.679,47.679v333.482
			c0,26.29,21.389,47.679,47.679,47.679h369.643c26.29,0,47.679-21.389,47.679-47.679V89.259
			C488.499,62.969,467.11,41.58,440.82,41.58z M71.178,56.58h369.643c18.02,0,32.679,14.659,32.679,32.679v22.229h-435V89.259
			C38.499,71.239,53.159,56.58,71.178,56.58z M440.82,455.42H71.178c-18.019,0-32.679-14.659-32.679-32.679V126.487h435v296.254
			C473.499,440.761,458.84,455.42,440.82,455.42z"></path><linearGradient id="b" x1="113.452" x2="532.411" y1="-109.411" y2="309.548" gradientTransform="matrix(1 0 0 -1 -50 373)" gradientUnits="userSpaceOnUse"><stop offset=".33" stop-color="#52c5dc"></stop><stop offset=".63" stop-color="#3c99d4"></stop><stop offset=".895" stop-color="#3e7abc"></stop></linearGradient><path fill="url(#b)" d="M331.543,176.193c-10.346,0-20.063,4.021-27.362,11.32l-44.179,44.178
			c-13.214,13.215-14.883,33.639-4.97,48.533l-10.848,10.848c-6.198-4.128-13.504-6.346-21.173-6.346
			c-10.345,0-20.063,4.02-27.363,11.319l-44.177,44.178c-15.042,15.042-15.13,39.431-0.196,54.366
			c7.173,7.173,16.763,11.124,27.001,11.124c10.346,0,20.063-4.021,27.363-11.32l44.177-44.178
			c13.215-13.215,14.884-33.64,4.971-48.533l10.848-10.848c6.198,4.128,13.503,6.346,21.173,6.346
			c10.346,0,20.063-4.02,27.363-11.319l44.178-44.178c15.042-15.043,15.13-39.431,0.195-54.366
			C351.371,180.145,341.781,176.193,331.543,176.193z M239.21,339.609l-44.177,44.178c-4.467,4.467-10.418,6.927-16.757,6.927
			c-6.232,0-12.055-2.391-16.395-6.73c-9.086-9.087-8.998-23.959,0.196-33.152l44.177-44.178c4.467-4.467,10.418-6.927,16.757-6.927
			c3.604,0,7.06,0.823,10.182,2.337l-14.207,14.207c-2.929,2.93-2.929,7.678,0,10.607c1.464,1.464,3.384,2.196,5.303,2.196
			s3.839-0.732,5.303-2.196l14.214-14.214C248.054,321.393,246.525,332.294,239.21,339.609z M347.742,231.076l-44.178,44.178
			c-4.466,4.467-10.417,6.927-16.756,6.927c-3.604,0-7.06-0.823-10.182-2.336l14.208-14.208c2.929-2.93,2.929-7.678,0-10.607
			c-2.93-2.928-7.678-2.928-10.607,0l-14.214,14.214c-4.248-8.729-2.719-19.63,4.596-26.946l44.179-44.178
			c4.466-4.467,10.417-6.927,16.756-6.927c6.232,0,12.055,2.391,16.395,6.731C357.024,207.011,356.937,221.883,347.742,231.076z"></path><linearGradient id="c" x1="-60.254" x2="358.705" y1="64.295" y2="483.254" gradientTransform="matrix(1 0 0 -1 -50 373)" gradientUnits="userSpaceOnUse"><stop offset=".33" stop-color="#52c5dc"></stop><stop offset=".63" stop-color="#3c99d4"></stop><stop offset=".895" stop-color="#3e7abc"></stop></linearGradient><path fill="url(#c)" d="M90.82,91.534h47.193c4.142,0,7.5-3.357,7.5-7.5s-3.358-7.5-7.5-7.5H90.82
			c-4.142,0-7.5,3.357-7.5,7.5S86.678,91.534,90.82,91.534z"></path><linearGradient id="d" x1="-20.713" x2="398.246" y1="24.754" y2="443.712" gradientTransform="matrix(1 0 0 -1 -50 373)" gradientUnits="userSpaceOnUse"><stop offset=".33" stop-color="#52c5dc"></stop><stop offset=".63" stop-color="#3c99d4"></stop><stop offset=".895" stop-color="#3e7abc"></stop></linearGradient><path fill="url(#d)" d="M169.903,91.534h47.192c4.142,0,7.5-3.357,7.5-7.5s-3.358-7.5-7.5-7.5h-47.192
			c-4.142,0-7.5,3.357-7.5,7.5S165.761,91.534,169.903,91.534z"></path><linearGradient id="e" x1="18.828" x2="437.787" y1="-14.788" y2="404.171" gradientTransform="matrix(1 0 0 -1 -50 373)" gradientUnits="userSpaceOnUse"><stop offset=".33" stop-color="#52c5dc"></stop><stop offset=".63" stop-color="#3c99d4"></stop><stop offset=".895" stop-color="#3e7abc"></stop></linearGradient><path fill="url(#e)" d="M248.985,91.534h47.193c4.143,0,7.5-3.357,7.5-7.5s-3.357-7.5-7.5-7.5h-47.193
			c-4.142,0-7.5,3.357-7.5,7.5S244.843,91.534,248.985,91.534z"></path></svg>